HIERARCHY
ROOT Junyuan_V1:Solving:Hips
{
	OFFSET 0.000000 0.000000 0.000000
	CHANNELS 6 Xposition Yposition Zposition Xrotation Yrotation Zrotation
	JOINT Junyuan_V1:Solving:Spine
	{
		OFFSET 0.000000 -11.180205 2.228564
		CHANNELS 6 Xposition Yposition Zposition Xrotation Yrotation Zrotation
		JOINT Junyuan_V1:Solving:Spine1
		{
			OFFSET 0.000000 -8.682996 1.531049
			CHANNELS 6 Xposition Yposition Zposition Xrotation Yrotation Zrotation
			JOINT Junyuan_V1:Solving:Spine2
			{
				OFFSET 0.000000 -8.783394 0.768450
				CHANNELS 6 Xposition Yposition Zposition Xrotation Yrotation Zrotation
				JOINT Junyuan_V1:Solving:Spine3
				{
					OFFSET 0.000000 -8.816944 0.000000
					CHANNELS 6 Xposition Yposition Zposition Xrotation Yrotation Zrotation
					JOINT Junyuan_V1:Solving:Neck
					{
						OFFSET 0.000000 -11.336071 -1.133605
						CHANNELS 6 Xposition Yposition Zposition Xrotation Yrotation Zrotation
						JOINT Junyuan_V1:Solving:Neck1
						{
							OFFSET 0.000000 -7.643246 -0.668695
							CHANNELS 6 Xposition Yposition Zposition Xrotation Yrotation Zrotation
							JOINT Junyuan_V1:Solving:Head
							{
								OFFSET 0.000000 -7.555870 -1.332303
								CHANNELS 6 Xposition Yposition Zposition Xrotation Yrotation Zrotation
								JOINT Junyuan_V1:Solving:HeadEnd
								{
									OFFSET 0.000000 -9.728081 0.000002
									CHANNELS 6 Xposition Yposition Zposition Xrotation Yrotation Zrotation
									End Site
									{
										OFFSET 0.000000 -9.728081 0.000002
									}
								}
							}
						}
					}
					JOINT Junyuan_V1:Solving:RightShoulder
					{
						OFFSET 0.000000 -8.097195 -5.270916
						CHANNELS 6 Xposition Yposition Zposition Xrotation Yrotation Zrotation
						JOINT Junyuan_V1:Solving:RightArm
						{
							OFFSET -20.762394 -0.000008 0.000000
							CHANNELS 6 Xposition Yposition Zposition Xrotation Yrotation Zrotation
							JOINT Junyuan_V1:Solving:RightForeArm
							{
								OFFSET -29.048946 -0.000008 0.000000
								CHANNELS 6 Xposition Yposition Zposition Xrotation Yrotation Zrotation
								JOINT Junyuan_V1:Solving:RightHand
								{
									OFFSET -22.031235 -0.000008 0.000000
									CHANNELS 6 Xposition Yposition Zposition Xrotation Yrotation Zrotation
									JOINT Junyuan_V1:Solving:RightHandThumb1
									{
										OFFSET -3.579254 2.890213 -2.661497
										CHANNELS 6 Xposition Yposition Zposition Xrotation Yrotation Zrotation
										End Site
										{
											OFFSET -5.229485 0.000000 -5.277840
										}
									}
									JOINT Junyuan_V1:Solving:RightHandMiddle1
									{
										OFFSET -9.544678 -0.000004 0.061184
										CHANNELS 6 Xposition Yposition Zposition Xrotation Yrotation Zrotation
										End Site
										{
											OFFSET -7.429878 -0.000004 0.000000
										}
									}
								}
							}
						}
					}
					JOINT Junyuan_V1:Solving:LeftShoulder
					{
						OFFSET 0.000000 -8.097195 -5.270916
						CHANNELS 6 Xposition Yposition Zposition Xrotation Yrotation Zrotation
						JOINT Junyuan_V1:Solving:LeftArm
						{
							OFFSET 20.762394 -0.000008 0.000000
							CHANNELS 6 Xposition Yposition Zposition Xrotation Yrotation Zrotation
							JOINT Junyuan_V1:Solving:LeftForeArm
							{
								OFFSET 29.048946 -0.000008 0.000000
								CHANNELS 6 Xposition Yposition Zposition Xrotation Yrotation Zrotation
								JOINT Junyuan_V1:Solving:LeftHand
								{
									OFFSET 22.031235 -0.000008 0.000000
									CHANNELS 6 Xposition Yposition Zposition Xrotation Yrotation Zrotation
									JOINT Junyuan_V1:Solving:LeftHandThumb1
									{
										OFFSET 3.579254 2.890213 -2.661497
										CHANNELS 6 Xposition Yposition Zposition Xrotation Yrotation Zrotation
										End Site
										{
											OFFSET 5.229485 0.000000 -5.277840
										}
									}
									JOINT Junyuan_V1:Solving:LeftHandMiddle1
									{
										OFFSET 9.544678 -0.000004 0.061184
										CHANNELS 6 Xposition Yposition Zposition Xrotation Yrotation Zrotation
										End Site
										{
											OFFSET 7.429878 -0.000004 0.000000
										}
									}
								}
							}
						}
					}
				}
			}
		}
	}
	JOINT Junyuan_V1:Solving:RightUpLeg
	{
		OFFSET -10.825166 0.000000 0.000000
		CHANNELS 6 Xposition Yposition Zposition Xrotation Yrotation Zrotation
		JOINT Junyuan_V1:Solving:RightLeg
		{
			OFFSET 0.000000 43.678444 -0.000006
			CHANNELS 6 Xposition Yposition Zposition Xrotation Yrotation Zrotation
			JOINT Junyuan_V1:Solving:RightFoot
			{
				OFFSET 0.000000 36.488441 -0.000006
				CHANNELS 6 Xposition Yposition Zposition Xrotation Yrotation Zrotation
				JOINT Junyuan_V1:Solving:RightForeFoot
				{
					OFFSET 0.000000 3.967834 -0.000000
					CHANNELS 6 Xposition Yposition Zposition Xrotation Yrotation Zrotation
					JOINT Junyuan_V1:Solving:RightToeBase
					{
						OFFSET 0.000000 0.000000 -15.539299
						CHANNELS 6 Xposition Yposition Zposition Xrotation Yrotation Zrotation
						JOINT Junyuan_V1:Solving:RightToeBaseEnd
						{
							OFFSET 0.000000 0.000000 -3.486985
							CHANNELS 6 Xposition Yposition Zposition Xrotation Yrotation Zrotation
							End Site
							{
								OFFSET 0.000000 -3.486992 0.000000
							}
						}
					}
				}
			}
		}
	}
	JOINT Junyuan_V1:Solving:LeftUpLeg
	{
		OFFSET 10.825166 0.000000 0.000000
		CHANNELS 6 Xposition Yposition Zposition Xrotation Yrotation Zrotation
		JOINT Junyuan_V1:Solving:LeftLeg
		{
			OFFSET 0.000000 43.678444 -0.000006
			CHANNELS 6 Xposition Yposition Zposition Xrotation Yrotation Zrotation
			JOINT Junyuan_V1:Solving:LeftFoot
			{
				OFFSET 0.000000 36.488441 -0.000006
				CHANNELS 6 Xposition Yposition Zposition Xrotation Yrotation Zrotation
				JOINT Junyuan_V1:Solving:LeftForeFoot
				{
					OFFSET 0.000000 3.967834 -0.000000
					CHANNELS 6 Xposition Yposition Zposition Xrotation Yrotation Zrotation
					JOINT Junyuan_V1:Solving:LeftToeBase
					{
						OFFSET 0.000000 0.000000 -15.539299
						CHANNELS 6 Xposition Yposition Zposition Xrotation Yrotation Zrotation
						JOINT Junyuan_V1:Solving:LeftToeBaseEnd
						{
							OFFSET 0.000000 0.000000 -3.974441
							CHANNELS 6 Xposition Yposition Zposition Xrotation Yrotation Zrotation
							End Site
							{
								OFFSET 0.000000 -3.974442 0.000000
							}
						}
					}
				}
			}
		}
	}
}
MOTION
Frames: 4
Frame Time: 0.041667
22.270845 -17.579491 -87.310471 66.689748 -168.517870 -3.864409 -0.000010 -11.180189 2.228568 18.542681 1.115321 2.031993 -0.000000 -8.682980 1.531043 3.367439 0.012353 0.062391 0.000008 -8.783387 0.768440 3.921393 -1.896889 0.216084 -0.000002 -8.816939 -0.000002 0.169313 0.219612 -0.058176 -0.000003 -11.336068 -1.133628 -18.979060 -4.835993 1.937306 -0.000003 -7.643247 -0.668700 5.409046 -0.656889 0.056703 0.000003 -7.555853 -1.332299 11.115492 -0.097590 0.089636 0.000002 -9.728081 -0.000007 0.000005 -0.000000 0.000000 -0.000003 -8.097183 -5.270943 0.000000 10.445168 14.364113 -20.762396 -0.000025 0.000003 -43.731184 -37.684975 -99.413636 -29.048977 -0.000017 -0.000008 -2.127815 -29.700039 -1.054636 -22.031239 -0.000027 -0.000004 1.174803 -3.168404 20.356687 -3.579263 2.890234 -2.661492 0.000001 -0.000003 0.000009 -9.544677 0.000005 0.061188 -0.000003 0.000002 0.000002 0.000003 -8.097176 -5.270940 0.000003 -11.194636 -12.313691 20.762383 -0.000002 0.000003 -49.836994 45.648391 101.254597 29.048941 -0.000012 -0.000003 -14.474619 24.844238 6.190111 22.031254 -0.000011 -0.000007 -0.141810 -0.568570 -14.003157 3.579245 2.890211 -2.661493 -0.000002 0.000002 -0.000002 9.544680 -0.000007 0.061193 -0.000008 -0.000004 0.000002 -10.825174 0.000034 -0.000005 -42.420334 4.771749 3.776568 0.000002 43.678421 -0.000008 21.685219 0.000006 -0.000000 -0.000003 36.488426 -0.000001 0.958068 12.682101 -2.794625 0.000003 3.967827 -0.000003 0.000000 0.000001 0.000000 -0.000003 0.000006 -15.539310 8.277503 -0.000002 -0.000002 0.000004 0.000000 -3.486992 0.000000 -0.000001 -0.000000 10.825162 0.000022 -0.000004 -38.985552 -20.041274 -10.385932 0.000005 43.678425 -0.000007 17.561478 -0.000002 0.000002 0.000005 36.488411 -0.000005 5.102099 -4.189241 5.139448 -0.000001 3.967827 -0.000005 0.000002 -0.000003 0.000000 0.000001 0.000001 -15.539309 0.737049 -0.000002 -0.000000 -0.000002 -0.000000 -3.974438 -0.000000 0.000001 -0.000000 
22.121145 -17.352104 -87.249664 66.237016 -168.456179 -3.851281 0.000001 -11.180227 2.228561 18.630869 1.131867 2.007404 0.000001 -8.682996 1.531046 3.468748 0.011709 0.065374 -0.000002 -8.783391 0.768459 4.076523 -1.950070 0.247377 0.000000 -8.816956 0.000006 0.099003 0.212976 -0.029719 -0.000001 -11.336062 -1.133602 -19.170096 -4.899846 1.945350 0.000001 -7.643273 -0.668702 5.424611 -0.606838 0.053500 0.000000 -7.555848 -1.332311 10.954525 -0.094313 0.073338 0.000001 -9.728096 0.000003 -0.000003 0.000000 0.000001 -0.000001 -8.097176 -5.270918 0.000005 10.307649 14.451002 -20.762388 0.000003 -0.000004 -44.236021 -36.883916 -99.254663 -29.048943 -0.000021 -0.000001 -3.179468 -29.553740 -1.569480 -22.031242 -0.000001 0.000001 1.254887 -3.298744 20.841380 -3.579266 2.890213 -2.661511 0.000005 0.000002 0.000005 -9.544696 -0.000003 0.061173 -0.000004 -0.000002 -0.000003 0.000001 -8.097176 -5.270918 0.000003 -11.139140 -12.401093 20.762379 0.000009 -0.000016 -50.582660 45.094931 101.127487 29.048950 -0.000017 -0.000001 -14.650329 24.403422 6.164461 22.031235 -0.000017 0.000003 -0.117999 -0.448316 -14.743969 3.579283 2.890214 -2.661489 0.000001 -0.000002 -0.000003 9.544717 -0.000009 0.061183 0.000001 -0.000002 0.000001 -10.825165 -0.000028 0.000003 -43.182631 5.696352 3.941863 0.000007 43.678448 -0.000007 21.964693 0.000002 -0.000001 -0.000003 36.488419 -0.000011 0.678133 13.262448 -2.562495 -0.000000 3.967834 -0.000000 0.000000 0.000001 0.000000 0.000000 -0.000012 -15.539307 8.451674 -0.000002 -0.000000 0.000008 -0.000008 -3.486985 -0.000000 -0.000007 0.000001 10.825167 -0.000003 -0.000003 -39.907935 -20.384112 -10.614271 0.000001 43.678436 -0.000013 17.998363 -0.000001 0.000002 0.000001 36.488426 -0.000006 4.904653 -3.869897 5.057295 0.000001 3.967827 -0.000002 0.000000 0.000002 -0.000000 0.000001 -0.000008 -15.539293 0.864404 0.000000 0.000000 -0.000004 -0.000007 -3.974440 0.000000 0.000003 0.000000 
21.978371 -17.125214 -87.181732 65.784038 -168.404748 -3.849916 0.000003 -11.180205 2.228552 18.705421 1.161413 1.994668 0.000002 -8.682984 1.531062 3.588478 0.010169 0.064825 -0.000005 -8.783376 0.768442 4.236940 -2.013045 0.277596 0.000001 -8.816933 -0.000024 0.023513 0.197613 -0.008791 -0.000001 -11.336079 -1.133604 -19.344866 -4.929656 2.003665 0.000003 -7.643236 -0.668705 5.412505 -0.552177 0.003966 -0.000001 -7.555865 -1.332325 10.788473 -0.087328 0.051041 -0.000004 -9.728104 0.000004 0.000003 0.000000 0.000001 -0.000001 -8.097191 -5.270919 0.000005 10.187960 14.570026 -20.762396 -0.000003 0.000010 -44.749313 -36.100893 -99.092569 -29.048952 -0.000019 0.000002 -4.340164 -29.395990 -2.133453 -22.031233 -0.000025 0.000011 1.353082 -3.474501 21.293349 -3.579250 2.890203 -2.661490 0.000002 -0.000010 0.000005 -9.544686 -0.000009 0.061188 0.000004 -0.000003 -0.000002 -0.000000 -8.097191 -5.270917 -0.000005 -11.057645 -12.488622 20.762396 -0.000015 -0.000002 -51.206273 44.399621 100.887529 29.048935 -0.000020 -0.000006 -15.178253 24.127722 6.327913 22.031235 -0.000020 -0.000009 -0.125544 -0.464047 -15.136678 3.579271 2.890218 -2.661489 -0.000000 0.000002 -0.000008 9.544678 0.000003 0.061193 0.000001 0.000002 -0.000000 -10.825166 -0.000010 -0.000005 -43.951625 6.697123 4.140974 0.000006 43.678444 -0.000004 22.249010 0.000002 -0.000000 -0.000005 36.488430 0.000006 0.353658 13.827755 -2.464268 -0.000006 3.967827 0.000004 -0.000000 0.000004 -0.000000 0.000002 0.000006 -15.539299 8.700475 -0.000001 0.000001 -0.000002 -0.000008 -3.486979 0.000000 0.000004 -0.000001 10.825167 0.000000 -0.000002 -40.857847 -20.714007 -10.843355 -0.000001 43.678455 -0.000002 18.489337 -0.000000 0.000002 -0.000001 36.488434 -0.000008 4.696114 -3.549349 4.963248 0.000001 3.967827 -0.000004 0.000002 -0.000002 -0.000000 0.000003 -0.000011 -15.539301 0.963538 -0.000002 -0.000000 0.000000 -0.000015 -3.974436 -0.000000 0.000004 -0.000000 
21.847027 -16.893808 -87.105377 65.332371 -168.361021 -3.847280 -0.000003 -11.180208 2.228562 18.775715 1.195475 1.978312 -0.000005 -8.683011 1.531056 3.728147 0.009530 0.060525 0.000003 -8.783385 0.768448 4.403404 -2.077288 0.311952 -0.000003 -8.816936 -0.000011 -0.075397 0.179464 0.016936 -0.000002 -11.336079 -1.133610 -19.571567 -4.957377 2.001092 0.000003 -7.643215 -0.668689 5.474176 -0.483259 0.012145 -0.000005 -7.555861 -1.332310 10.613661 -0.079901 0.039505 0.000005 -9.728081 0.000003 -0.000001 -0.000000 0.000000 -0.000005 -8.097206 -5.270914 0.000001 10.063233 14.722925 -20.762396 -0.000006 -0.000014 -45.277689 -35.279197 -98.959059 -29.048948 -0.000022 0.000004 -5.487436 -29.204000 -2.683698 -22.031223 -0.000013 -0.000014 1.496906 -3.762800 21.712422 -3.579243 2.890223 -2.661484 0.000004 -0.000003 0.000005 -9.544655 -0.000005 0.061188 0.000003 0.000004 0.000000 -0.000005 -8.097195 -5.270922 -0.000008 -10.964323 -12.633041 20.762390 -0.000004 -0.000007 -51.744622 43.439689 100.671647 29.048946 -0.000029 -0.000013 -15.628695 23.869831 6.458465 22.031244 -0.000017 0.000000 -0.064604 -0.234256 -15.415288 3.579245 2.890203 -2.661495 0.000005 0.000000 -0.000002 9.544683 -0.000009 0.061184 0.000006 0.000000 -0.000002 -10.825169 -0.000010 0.000000 -44.744177 7.768328 4.361119 -0.000003 43.678471 -0.000008 22.577634 0.000001 0.000002 -0.000017 36.488426 -0.000007 -0.009381 14.276368 -2.402544 -0.000000 3.967827 -0.000003 -0.000000 -0.000003 0.000000 0.000004 0.000003 -15.539305 8.676100 0.000002 0.000000 0.000013 -0.000007 -3.486982 0.000002 -0.000004 0.000002 10.825165 -0.000015 -0.000001 -41.819623 -20.946438 -11.071993 0.000002 43.678474 0.000003 19.024268 -0.000000 0.000001 -0.000000 36.488434 -0.000005 4.482756 -3.303497 4.899416 0.000001 3.967827 -0.000003 0.000001 0.000004 -0.000000 -0.000002 0.000009 -15.539304 1.047512 0.000002 0.000000 -0.000003 -0.000008 -3.974444 -0.000000 -0.000003 -0.000000 
